<?xml version="1.0" encoding="utf-8" ?>
<svg baseProfile="full" height="57.5mm" version="1.1" viewBox="0,0,306.20000000000005,57.5" width="306.20000000000005mm" xmlns="http://www.w3.org/2000/svg" xmlns:ev="http://www.w3.org/2001/xml-events" xmlns:xlink="http://www.w3.org/1999/xlink"><defs /><rect fill="#f2f2f2" height="57.5" width="306.20000000000005" x="0" y="0" /><text fill="#586e75" style="font-size:6px; font-family:Arial; font-weight:bold;" x="10" y="10">å°æ»¡</text><text fill="#586e75" style="font-size:3px; font-family:Arial;" x="10" y="14.4">2024: 462 hours</text><text fill="#586e75" style="font-size:2.5px; font-family:Arial" x="10" y="18.3">Jan</text><rect fill="#a5dc9f" height="4" rx="1" ry="1" width="4" x="10" y="19.7"><title>2024-01-01 45.93 mins</title></rect><rect fill="#519b4c" height="4" rx="1" ry="1" width="4" x="10" y="25.1"><title>2024-01-02 282.45 mins</title></rect><rect fill="#519b4c" height="4" rx="1" ry="1" width="4" x="10" y="30.5"><title>2024-01-03 185.73 mins</title></rect><rect fill="#519b4c" height="4" rx="1" ry="1" width="4" x="10" y="35.9"><title>2024-01-04 150.35 mins</title></rect><rect fill="#519b4c" height="4" rx="1" ry="1" width="4" x="10" y="41.300000000000004"><title>2024-01-05 191.02 mins</title></rect><rect fill="#519b4c" height="4" rx="1" ry="1" width="4" x="10" y="46.699999999999996"><title>2024-01-06 247.32 mins</title></rect><rect fill="#519b4c" height="4" rx="1" ry="1" width="4" x="10" y="52.1"><title>2024-01-07 331.3 mins</title></rect><rect fill="#a4dc9e" height="4" rx="1" ry="1" width="4" x="15.4" y="19.7"><title>2024-01-08 49.72 mins</title></rect><rect fill="#63b55f" height="4" rx="1" ry="1" width="4" x="15.4" y="25.1"><title>2024-01-09 106.33 mins</title></rect><rect fill="#519b4c" height="4" rx="1" ry="1" width="4" x="15.4" y="30.5"><title>2024-01-10 154.6 mins</title></rect><rect fill="#519b4c" height="4" rx="1" ry="1" width="4" x="15.4" y="35.9"><title>2024-01-11 180.85 mins</title></rect><rect fill="#a9dea3" height="4" rx="1" ry="1" width="4" x="15.4" y="41.300000000000004"><title>2024-01-12 30.58 mins</title></rect><rect fill="#519b4c" height="4" rx="1" ry="1" width="4" x="15.4" y="46.699999999999996"><title>2024-01-13 149.63 mins</title></rect><rect fill="#a2db9c" height="4" rx="1" ry="1" width="4" x="15.4" y="52.1"><title>2024-01-14 57.75 mins</title></rect><rect fill="#abdfa5" height="4" rx="1" ry="1" width="4" x="20.8" y="19.7"><title>2024-01-15 23.07 mins</title></rect><rect fill="#519b4c" height="4" rx="1" ry="1" width="4" x="20.8" y="25.1"><title>2024-01-16 179.2 mins</title></rect><rect fill="#519b4c" height="4" rx="1" ry="1" width="4" x="20.8" y="30.5"><title>2024-01-17 172.15 mins</title></rect><rect fill="#519b4c" height="4" rx="1" ry="1" width="4" x="20.8" y="35.9"><title>2024-01-18 153.48 mins</title></rect><rect fill="#62b55e" height="4" rx="1" ry="1" width="4" x="20.8" y="41.300000000000004"><title>2024-01-19 118.85 mins</title></rect><rect fill="#64b660" height="4" rx="1" ry="1" width="4" x="20.8" y="46.699999999999996"><title>2024-01-20 94.87 mins</title></rect><rect fill="#519b4c" height="4" rx="1" ry="1" width="4" x="20.8" y="52.1"><title>2024-01-21 348.52 mins</title></rect><rect fill="#63b55e" height="4" rx="1" ry="1" width="4" x="26.200000000000003" y="19.7"><title>2024-01-22 113.93 mins</title></rect><rect fill="#a8dea2" height="4" rx="1" ry="1" width="4" x="26.200000000000003" y="25.1"><title>2024-01-23 35.42 mins</title></rect><rect fill="#a9dea2" height="4" rx="1" ry="1" width="4" x="26.200000000000003" y="30.5"><title>2024-01-24 32.88 mins</title></rect><rect fill="#aadfa3" height="4" rx="1" ry="1" width="4" x="26.200000000000003" y="35.9"><title>2024-01-25 28.4 mins</title></rect><rect fill="#65b660" height="4" rx="1" ry="1" width="4" x="26.200000000000003" y="41.300000000000004"><title>2024-01-26 90.25 mins</title></rect><rect fill="#519b4c" height="4" rx="1" ry="1" width="4" x="26.200000000000003" y="46.699999999999996"><title>2024-01-27 183.7 mins</title></rect><rect fill="#519b4c" height="4" rx="1" ry="1" width="4" x="26.200000000000003" y="52.1"><title>2024-01-28 213.33 mins</title></rect><rect fill="#64b660" height="4" rx="1" ry="1" width="4" x="31.6" y="19.7"><title>2024-01-29 92.4 mins</title></rect><rect fill="#63b55f" height="4" rx="1" ry="1" width="4" x="31.6" y="25.1"><title>2024-01-30 110.53 mins</title></rect><rect fill="#64b660" height="4" rx="1" ry="1" width="4" x="31.6" y="30.5"><title>2024-01-31 94.33 mins</title></rect><rect fill="#63b55e" height="4" rx="1" ry="1" width="4" x="31.6" y="35.9"><title>2024-02-01 116.77 mins</title></rect><rect fill="#63b55f" height="4" rx="1" ry="1" width="4" x="31.6" y="41.300000000000004"><title>2024-02-02 110.52 mins</title></rect><rect fill="#519b4c" height="4" rx="1" ry="1" width="4" x="31.6" y="46.699999999999996"><title>2024-02-03 370.43 mins</title></rect><rect fill="#519b4c" height="4" rx="1" ry="1" width="4" x="31.6" y="52.1"><title>2024-02-04 249.38 mins</title></rect><text fill="#586e75" style="font-size:2.5px; font-family:Arial" x="37.0" y="18.3">Feb</text><rect fill="#62b55e" height="4" rx="1" ry="1" width="4" x="37.0" y="19.7"><title>2024-02-05 120.18 mins</title></rect><rect fill="#aadfa4" height="4" rx="1" ry="1" width="4" x="37.0" y="25.1"><title>2024-02-06 26.92 mins</title></rect><rect fill="#519b4c" height="4" rx="1" ry="1" width="4" x="37.0" y="30.5"><title>2024-02-07 214.63 mins</title></rect><rect fill="#519b4c" height="4" rx="1" ry="1" width="4" x="37.0" y="35.9"><title>2024-02-08 303.17 mins</title></rect><rect fill="#a6dd9f" height="4" rx="1" ry="1" width="4" x="37.0" y="41.300000000000004"><title>2024-02-09 45.0 mins</title></rect><rect fill="#519b4c" height="4" rx="1" ry="1" width="4" x="37.0" y="46.699999999999996"><title>2024-02-10 177.37 mins</title></rect><rect fill="#abdfa5" height="4" rx="1" ry="1" width="4" x="37.0" y="52.1"><title>2024-02-11 21.55 mins</title></rect><rect fill="#a8dea2" height="4" rx="1" ry="1" width="4" x="42.4" y="19.7"><title>2024-02-12 34.55 mins</title></rect><rect fill="#a4dc9e" height="4" rx="1" ry="1" width="4" x="42.4" y="25.1"><title>2024-02-13 50.38 mins</title></rect><rect fill="#a8dea2" height="4" rx="1" ry="1" width="4" x="42.4" y="30.5"><title>2024-02-14 35.47 mins</title></rect><rect fill="#63b55e" height="4" rx="1" ry="1" width="4" x="42.4" y="35.9"><title>2024-02-15 111.15 mins</title></rect><rect fill="#519b4c" height="4" rx="1" ry="1" width="4" x="42.4" y="41.300000000000004"><title>2024-02-16 240.18 mins</title></rect><rect fill="#64b660" height="4" rx="1" ry="1" width="4" x="42.4" y="46.699999999999996"><title>2024-02-17 95.17 mins</title></rect><rect fill="#61b45d" height="4" rx="1" ry="1" width="4" x="42.4" y="52.1"><title>2024-02-18 130.28 mins</title></rect><rect fill="#66b761" height="4" rx="1" ry="1" width="4" x="47.8" y="19.7"><title>2024-02-19 76.0 mins</title></rect><rect fill="#61b45d" height="4" rx="1" ry="1" width="4" x="47.8" y="25.1"><title>2024-02-20 133.07 mins</title></rect><rect fill="#abdfa4" height="4" rx="1" ry="1" width="4" x="47.8" y="30.5"><title>2024-02-21 24.88 mins</title></rect><rect fill="#aee1a8" height="4" rx="1" ry="1" width="4" x="47.8" y="35.9"><title>2024-02-22 12.08 mins</title></rect><rect fill="#b0e2aa" height="4" rx="1" ry="1" width="4" x="47.8" y="41.300000000000004"><title>2024-02-23 2.62 mins</title></rect><rect fill="#a3db9d" height="4" rx="1" ry="1" width="4" x="47.8" y="46.699999999999996"><title>2024-02-24 54.33 mins</title></rect><rect fill="#ade0a7" height="4" rx="1" ry="1" width="4" x="47.8" y="52.1"><title>2024-02-25 13.98 mins</title></rect><rect fill="#ade0a6" height="4" rx="1" ry="1" width="4" x="53.199999999999996" y="19.7"><title>2024-02-26 17.42 mins</title></rect><rect fill="#a2db9b" height="4" rx="1" ry="1" width="4" x="53.199999999999996" y="25.1"><title>2024-02-27 60.6 mins</title></rect><rect fill="#64b660" height="4" rx="1" ry="1" width="4" x="53.199999999999996" y="30.5"><title>2024-02-28 92.93 mins</title></rect><rect fill="#ace0a6" height="4" rx="1" ry="1" width="4" x="53.199999999999996" y="35.9"><title>2024-02-29 19.15 mins</title></rect><rect fill="#ade0a6" height="4" rx="1" ry="1" width="4" x="53.199999999999996" y="41.300000000000004"><title>2024-03-01 17.57 mins</title></rect><rect fill="#abdfa5" height="4" rx="1" ry="1" width="4" x="53.199999999999996" y="46.699999999999996"><title>2024-03-02 21.63 mins</title></rect><rect fill="#62b55e" height="4" rx="1" ry="1" width="4" x="53.199999999999996" y="52.1"><title>2024-03-03 119.63 mins</title></rect><text fill="#586e75" style="font-size:2.5px; font-family:Arial" x="58.599999999999994" y="18.3">Mar</text><rect fill="#519b4c" height="4" rx="1" ry="1" width="4" x="58.599999999999994" y="19.7"><title>2024-03-04 195.13 mins</title></rect><rect fill="#63b55f" height="4" rx="1" ry="1" width="4" x="58.599999999999994" y="25.1"><title>2024-03-05 107.18 mins</title></rect><rect fill="#519b4c" height="4" rx="1" ry="1" width="4" x="58.599999999999994" y="30.5"><title>2024-03-06 155.35 mins</title></rect><rect fill="#a7dda0" height="4" rx="1" ry="1" width="4" x="58.599999999999994" y="35.9"><title>2024-03-07 40.48 mins</title></rect><rect fill="#66b761" height="4" rx="1" ry="1" width="4" x="58.599999999999994" y="41.300000000000004"><title>2024-03-08 79.52 mins</title></rect><rect fill="#62b45d" height="4" rx="1" ry="1" width="4" x="58.599999999999994" y="46.699999999999996"><title>2024-03-09 122.5 mins</title></rect><rect fill="#66b761" height="4" rx="1" ry="1" width="4" x="58.599999999999994" y="52.1"><title>2024-03-10 76.82 mins</title></rect><rect fill="#66b762" height="4" rx="1" ry="1" width="4" x="63.99999999999999" y="19.7"><title>2024-03-11 72.63 mins</title></rect><rect fill="#63b55f" height="4" rx="1" ry="1" width="4" x="63.99999999999999" y="25.1"><title>2024-03-12 107.38 mins</title></rect><rect fill="#62b45d" height="4" rx="1" ry="1" width="4" x="63.99999999999999" y="30.5"><title>2024-03-13 129.37 mins</title></rect><rect fill="#62b45d" height="4" rx="1" ry="1" width="4" x="63.99999999999999" y="35.9"><title>2024-03-14 125.97 mins</title></rect><rect fill="#64b55f" height="4" rx="1" ry="1" width="4" x="63.99999999999999" y="41.300000000000004"><title>2024-03-15 104.53 mins</title></rect><rect fill="#a2db9b" height="4" rx="1" ry="1" width="4" x="63.99999999999999" y="46.699999999999996"><title>2024-03-16 59.83 mins</title></rect><rect fill="#62b45d" height="4" rx="1" ry="1" width="4" x="63.99999999999999" y="52.1"><title>2024-03-17 126.55 mins</title></rect><rect fill="#519b4c" height="4" rx="1" ry="1" width="4" x="69.39999999999999" y="19.7"><title>2024-03-18 146.83 mins</title></rect><rect fill="#519b4c" height="4" rx="1" ry="1" width="4" x="69.39999999999999" y="25.1"><title>2024-03-19 310.68 mins</title></rect><rect fill="#abdfa5" height="4" rx="1" ry="1" width="4" x="69.39999999999999" y="30.5"><title>2024-03-20 22.65 mins</title></rect><rect fill="#519b4c" height="4" rx="1" ry="1" width="4" x="69.39999999999999" y="35.9"><title>2024-03-21 330.07 mins</title></rect><rect fill="#61b45c" height="4" rx="1" ry="1" width="4" x="69.39999999999999" y="41.300000000000004"><title>2024-03-22 137.18 mins</title></rect><rect fill="#519b4c" height="4" rx="1" ry="1" width="4" x="69.39999999999999" y="46.699999999999996"><title>2024-03-23 196.65 mins</title></rect><rect fill="#519b4c" height="4" rx="1" ry="1" width="4" x="69.39999999999999" y="52.1"><title>2024-03-24 158.77 mins</title></rect><rect fill="#61b45d" height="4" rx="1" ry="1" width="4" x="74.8" y="19.7"><title>2024-03-25 130.15 mins</title></rect><rect fill="#519b4c" height="4" rx="1" ry="1" width="4" x="74.8" y="25.1"><title>2024-03-26 196.4 mins</title></rect><rect fill="#b0e2aa" height="4" rx="1" ry="1" width="4" x="74.8" y="30.5"><title>2024-03-27 3.83 mins</title></rect><rect fill="#a3db9d" height="4" rx="1" ry="1" width="4" x="74.8" y="35.9"><title>2024-03-28 54.67 mins</title></rect><rect fill="#a7dda1" height="4" rx="1" ry="1" width="4" x="74.8" y="41.300000000000004"><title>2024-03-29 38.8 mins</title></rect><rect fill="#519b4c" height="4" rx="1" ry="1" width="4" x="74.8" y="46.699999999999996"><title>2024-03-30 163.68 mins</title></rect><rect fill="#519b4c" height="4" rx="1" ry="1" width="4" x="74.8" y="52.1"><title>2024-03-31 275.48 mins</title></rect><text fill="#586e75" style="font-size:2.5px; font-family:Arial" x="80.2" y="18.3">Apr</text><rect fill="#61b45d" height="4" rx="1" ry="1" width="4" x="80.2" y="19.7"><title>2024-04-01 131.25 mins</title></rect><rect fill="#a2db9c" height="4" rx="1" ry="1" width="4" x="80.2" y="25.1"><title>2024-04-02 58.77 mins</title></rect><rect fill="#ade0a7" height="4" rx="1" ry="1" width="4" x="80.2" y="30.5"><title>2024-04-03 16.33 mins</title></rect><rect fill="#519b4c" height="4" rx="1" ry="1" width="4" x="80.2" y="35.9"><title>2024-04-04 215.85 mins</title></rect><rect fill="#a8dea2" height="4" rx="1" ry="1" width="4" x="80.2" y="41.300000000000004"><title>2024-04-05 34.02 mins</title></rect><rect fill="#62b45d" height="4" rx="1" ry="1" width="4" x="80.2" y="46.699999999999996"><title>2024-04-06 123.38 mins</title></rect><rect fill="#a8dea2" height="4" rx="1" ry="1" width="4" x="80.2" y="52.1"><title>2024-04-07 33.53 mins</title></rect><rect fill="#a6dd9f" height="4" rx="1" ry="1" width="4" x="85.60000000000001" y="19.7"><title>2024-04-08 44.72 mins</title></rect><rect fill="#519b4c" height="4" rx="1" ry="1" width="4" x="85.60000000000001" y="25.1"><title>2024-04-09 142.4 mins</title></rect><rect fill="#519b4c" height="4" rx="1" ry="1" width="4" x="85.60000000000001" y="30.5"><title>2024-04-10 229.2 mins</title></rect><rect fill="#519b4c" height="4" rx="1" ry="1" width="4" x="85.60000000000001" y="35.9"><title>2024-04-11 198.27 mins</title></rect><rect fill="#62b45d" height="4" rx="1" ry="1" width="4" x="85.60000000000001" y="41.300000000000004"><title>2024-04-12 123.07 mins</title></rect><rect fill="#63b55e" height="4" rx="1" ry="1" width="4" x="85.60000000000001" y="46.699999999999996"><title>2024-04-13 116.95 mins</title></rect><rect fill="#63b55e" height="4" rx="1" ry="1" width="4" x="85.60000000000001" y="52.1"><title>2024-04-14 113.92 mins</title></rect><rect fill="#aee1a8" height="4" rx="1" ry="1" width="4" x="91.00000000000001" y="19.7"><title>2024-04-15 10.13 mins</title></rect><rect fill="#65b761" height="4" rx="1" ry="1" width="4" x="91.00000000000001" y="25.1"><title>2024-04-16 84.5 mins</title></rect><rect fill="#519b4c" height="4" rx="1" ry="1" width="4" x="91.00000000000001" y="30.5"><title>2024-04-17 215.85 mins</title></rect><rect fill="#64b65f" height="4" rx="1" ry="1" width="4" x="91.00000000000001" y="35.9"><title>2024-04-18 100.18 mins</title></rect><rect fill="#abdfa5" height="4" rx="1" ry="1" width="4" x="91.00000000000001" y="41.300000000000004"><title>2024-04-19 23.63 mins</title></rect><rect fill="#519b4c" height="4" rx="1" ry="1" width="4" x="91.00000000000001" y="46.699999999999996"><title>2024-04-20 180.58 mins</title></rect><rect fill="#519b4c" height="4" rx="1" ry="1" width="4" x="91.00000000000001" y="52.1"><title>2024-04-21 191.9 mins</title></rect><rect fill="#519b4c" height="4" rx="1" ry="1" width="4" x="96.40000000000002" y="19.7"><title>2024-04-22 313.43 mins</title></rect><rect fill="#64b660" height="4" rx="1" ry="1" width="4" x="96.40000000000002" y="25.1"><title>2024-04-23 94.53 mins</title></rect><rect fill="#519b4c" height="4" rx="1" ry="1" width="4" x="96.40000000000002" y="30.5"><title>2024-04-24 196.87 mins</title></rect><rect fill="#64b65f" height="4" rx="1" ry="1" width="4" x="96.40000000000002" y="35.9"><title>2024-04-25 102.98 mins</title></rect><rect fill="#a1da9a" height="4" rx="1" ry="1" width="4" x="96.40000000000002" y="41.300000000000004"><title>2024-04-26 64.35 mins</title></rect><rect fill="#519b4c" height="4" rx="1" ry="1" width="4" x="96.40000000000002" y="46.699999999999996"><title>2024-04-27 161.02 mins</title></rect><rect fill="#ade0a7" height="4" rx="1" ry="1" width="4" x="96.40000000000002" y="52.1"><title>2024-04-28 14.6 mins</title></rect><rect fill="#66b762" height="4" rx="1" ry="1" width="4" x="101.80000000000003" y="19.7"><title>2024-04-29 67.87 mins</title></rect><rect fill="#519b4c" height="4" rx="1" ry="1" width="4" x="101.80000000000003" y="25.1"><title>2024-04-30 145.88 mins</title></rect><rect fill="#61b45c" height="4" rx="1" ry="1" width="4" x="101.80000000000003" y="30.5"><title>2024-05-01 138.47 mins</title></rect><rect fill="#519b4c" height="4" rx="1" ry="1" width="4" x="101.80000000000003" y="35.9"><title>2024-05-02 152.42 mins</title></rect><rect fill="#519b4c" height="4" rx="1" ry="1" width="4" x="101.80000000000003" y="41.300000000000004"><title>2024-05-03 143.67 mins</title></rect><rect fill="#519b4c" height="4" rx="1" ry="1" width="4" x="101.80000000000003" y="46.699999999999996"><title>2024-05-04 163.37 mins</title></rect><rect fill="#65b660" height="4" rx="1" ry="1" width="4" x="101.80000000000003" y="52.1"><title>2024-05-05 91.35 mins</title></rect><text fill="#586e75" style="font-size:2.5px; font-family:Arial" x="107.20000000000003" y="18.3">May</text><rect fill="#519b4c" height="4" rx="1" ry="1" width="4" x="107.20000000000003" y="19.7"><title>2024-05-06 146.15 mins</title></rect><rect fill="#519b4c" height="4" rx="1" ry="1" width="4" x="107.20000000000003" y="25.1"><title>2024-05-07 156.85 mins</title></rect><rect fill="#519b4c" height="4" rx="1" ry="1" width="4" x="107.20000000000003" y="30.5"><title>2024-05-08 150.25 mins</title></rect><rect fill="#519b4c" height="4" rx="1" ry="1" width="4" x="107.20000000000003" y="35.9"><title>2024-05-09 261.73 mins</title></rect><rect fill="#62b45d" height="4" rx="1" ry="1" width="4" x="107.20000000000003" y="41.300000000000004"><title>2024-05-10 123.02 mins</title></rect><rect fill="#519b4c" height="4" rx="1" ry="1" width="4" x="107.20000000000003" y="46.699999999999996"><title>2024-05-11 157.88 mins</title></rect><rect fill="#64b65f" height="4" rx="1" ry="1" width="4" x="107.20000000000003" y="52.1"><title>2024-05-12 99.6 mins</title></rect><rect fill="#519b4c" height="4" rx="1" ry="1" width="4" x="112.60000000000004" y="19.7"><title>2024-05-13 197.12 mins</title></rect><rect fill="#61b45d" height="4" rx="1" ry="1" width="4" x="112.60000000000004" y="25.1"><title>2024-05-14 133.05 mins</title></rect><rect fill="#64b65f" height="4" rx="1" ry="1" width="4" x="112.60000000000004" y="30.5"><title>2024-05-15 101.42 mins</title></rect><rect fill="#62b55e" height="4" rx="1" ry="1" width="4" x="112.60000000000004" y="35.9"><title>2024-05-16 117.12 mins</title></rect><rect fill="#a4dc9d" height="4" rx="1" ry="1" width="4" x="112.60000000000004" y="41.300000000000004"><title>2024-05-17 52.88 mins</title></rect><rect fill="#62b45d" height="4" rx="1" ry="1" width="4" x="112.60000000000004" y="46.699999999999996"><title>2024-05-18 123.72 mins</title></rect><rect fill="#a1da9a" height="4" rx="1" ry="1" width="4" x="112.60000000000004" y="52.1"><title>2024-05-19 64.28 mins</title></rect><rect fill="#65b660" height="4" rx="1" ry="1" width="4" x="118.00000000000004" y="19.7"><title>2024-05-20 91.85 mins</title></rect><rect fill="#519b4c" height="4" rx="1" ry="1" width="4" x="118.00000000000004" y="25.1"><title>2024-05-21 241.25 mins</title></rect><rect fill="#519b4c" height="4" rx="1" ry="1" width="4" x="118.00000000000004" y="30.5"><title>2024-05-22 246.75 mins</title></rect><rect fill="#519b4c" height="4" rx="1" ry="1" width="4" x="118.00000000000004" y="35.9"><title>2024-05-23 226.97 mins</title></rect><rect fill="#519b4c" height="4" rx="1" ry="1" width="4" x="118.00000000000004" y="41.300000000000004"><title>2024-05-24 274.18 mins</title></rect><rect fill="#62b45d" height="4" rx="1" ry="1" width="4" x="118.00000000000004" y="46.699999999999996"><title>2024-05-25 125.05 mins</title></rect><rect fill="#519b4c" height="4" rx="1" ry="1" width="4" x="118.00000000000004" y="52.1"><title>2024-05-26 146.52 mins</title></rect><rect fill="#aadfa4" height="4" rx="1" ry="1" width="4" x="123.40000000000005" y="19.7"><title>2024-05-27 26.22 mins</title></rect><rect fill="#519b4c" height="4" rx="1" ry="1" width="4" x="123.40000000000005" y="25.1"><title>2024-05-28 229.0 mins</title></rect><rect fill="#519b4c" height="4" rx="1" ry="1" width="4" x="123.40000000000005" y="30.5"><title>2024-05-29 338.68 mins</title></rect><rect fill="#519b4c" height="4" rx="1" ry="1" width="4" x="123.40000000000005" y="35.9"><title>2024-05-30 171.33 mins</title></rect><rect fill="#63b55e" height="4" rx="1" ry="1" width="4" x="123.40000000000005" y="41.300000000000004"><title>2024-05-31 113.82 mins</title></rect><rect fill="#64b55f" height="4" rx="1" ry="1" width="4" x="123.40000000000005" y="46.699999999999996"><title>2024-06-01 103.62 mins</title></rect><rect fill="#519b4c" height="4" rx="1" ry="1" width="4" x="123.40000000000005" y="52.1"><title>2024-06-02 173.17 mins</title></rect><text fill="#586e75" style="font-size:2.5px; font-family:Arial" x="128.80000000000004" y="18.3">Jun</text><rect fill="#65b761" height="4" rx="1" ry="1" width="4" x="128.80000000000004" y="19.7"><title>2024-06-03 83.52 mins</title></rect><rect fill="#62b45d" height="4" rx="1" ry="1" width="4" x="128.80000000000004" y="25.1"><title>2024-06-04 123.88 mins</title></rect><rect fill="#519b4c" height="4" rx="1" ry="1" width="4" x="128.80000000000004" y="30.5"><title>2024-06-05 359.67 mins</title></rect><rect fill="#519b4c" height="4" rx="1" ry="1" width="4" x="128.80000000000004" y="35.9"><title>2024-06-06 431.53 mins</title></rect><rect fill="#64b65f" height="4" rx="1" ry="1" width="4" x="128.80000000000004" y="41.300000000000004"><title>2024-06-07 101.87 mins</title></rect><rect fill="#66b762" height="4" rx="1" ry="1" width="4" x="128.80000000000004" y="46.699999999999996"><title>2024-06-08 69.2 mins</title></rect><rect fill="#66b762" height="4" rx="1" ry="1" width="4" x="128.80000000000004" y="52.1"><title>2024-06-09 74.85 mins</title></rect><rect fill="#a3dc9d" height="4" rx="1" ry="1" width="4" x="134.20000000000005" y="19.7"><title>2024-06-10 53.25 mins</title></rect><rect fill="#519b4c" height="4" rx="1" ry="1" width="4" x="134.20000000000005" y="25.1"><title>2024-06-11 174.0 mins</title></rect><rect fill="#519b4c" height="4" rx="1" ry="1" width="4" x="134.20000000000005" y="30.5"><title>2024-06-12 157.75 mins</title></rect><rect fill="#63b55f" height="4" rx="1" ry="1" width="4" x="134.20000000000005" y="35.9"><title>2024-06-13 107.73 mins</title></rect><rect fill="#a9dea3" height="4" rx="1" ry="1" width="4" x="134.20000000000005" y="41.300000000000004"><title>2024-06-14 30.65 mins</title></rect><rect fill="#a5dc9e" height="4" rx="1" ry="1" width="4" x="134.20000000000005" y="46.699999999999996"><title>2024-06-15 48.3 mins</title></rect><rect fill="#66b762" height="4" rx="1" ry="1" width="4" x="134.20000000000005" y="52.1"><title>2024-06-16 70.23 mins</title></rect><rect fill="#65b761" height="4" rx="1" ry="1" width="4" x="139.60000000000005" y="19.7"><title>2024-06-17 84.08 mins</title></rect><rect fill="#acdfa5" height="4" rx="1" ry="1" width="4" x="139.60000000000005" y="25.1"><title>2024-06-18 21.15 mins</title></rect><rect fill="#67b762" height="4" rx="1" ry="1" width="4" x="139.60000000000005" y="30.5"><title>2024-06-19 66.92 mins</title></rect><rect fill="#a2db9c" height="4" rx="1" ry="1" width="4" x="139.60000000000005" y="35.9"><title>2024-06-20 58.78 mins</title></rect><rect fill="#a5dc9f" height="4" rx="1" ry="1" width="4" x="139.60000000000005" y="41.300000000000004"><title>2024-06-21 46.78 mins</title></rect><rect fill="#61b45c" height="4" rx="1" ry="1" width="4" x="139.60000000000005" y="46.699999999999996"><title>2024-06-22 137.8 mins</title></rect><rect fill="#61b45c" height="4" rx="1" ry="1" width="4" x="139.60000000000005" y="52.1"><title>2024-06-23 136.5 mins</title></rect><rect fill="#519b4c" height="4" rx="1" ry="1" width="4" x="145.00000000000006" y="19.7"><title>2024-06-24 149.15 mins</title></rect><rect fill="#62b55e" height="4" rx="1" ry="1" width="4" x="145.00000000000006" y="25.1"><title>2024-06-25 121.28 mins</title></rect><rect fill="#61b45c" height="4" rx="1" ry="1" width="4" x="145.00000000000006" y="30.5"><title>2024-06-26 137.62 mins</title></rect><rect fill="#64b660" height="4" rx="1" ry="1" width="4" x="145.00000000000006" y="35.9"><title>2024-06-27 92.28 mins</title></rect><rect fill="#64b660" height="4" rx="1" ry="1" width="4" x="145.00000000000006" y="41.300000000000004"><title>2024-06-28 92.97 mins</title></rect><rect fill="#a1da9b" height="4" rx="1" ry="1" width="4" x="145.00000000000006" y="46.699999999999996"><title>2024-06-29 61.8 mins</title></rect><rect fill="#a4dc9e" height="4" rx="1" ry="1" width="4" x="145.00000000000006" y="52.1"><title>2024-06-30 49.47 mins</title></rect><text fill="#586e75" style="font-size:2.5px; font-family:Arial" x="150.40000000000006" y="18.3">Jul</text><rect fill="#63b55f" height="4" rx="1" ry="1" width="4" x="150.40000000000006" y="19.7"><title>2024-07-01 109.0 mins</title></rect><rect fill="#a5dc9e" height="4" rx="1" ry="1" width="4" x="150.40000000000006" y="25.1"><title>2024-07-02 47.83 mins</title></rect><rect fill="#64b660" height="4" rx="1" ry="1" width="4" x="150.40000000000006" y="30.5"><title>2024-07-03 96.83 mins</title></rect><rect fill="#a2db9c" height="4" rx="1" ry="1" width="4" x="150.40000000000006" y="35.9"><title>2024-07-04 57.15 mins</title></rect><rect fill="#aee1a8" height="4" rx="1" ry="1" width="4" x="150.40000000000006" y="41.300000000000004"><title>2024-07-05 11.4 mins</title></rect><rect fill="#afe1a9" height="4" rx="1" ry="1" width="4" x="150.40000000000006" y="46.699999999999996"><title>2024-07-06 8.9 mins</title></rect><rect fill="#ace0a6" height="4" rx="1" ry="1" width="4" x="150.40000000000006" y="52.1"><title>2024-07-07 18.82 mins</title></rect><rect fill="#a8dea2" height="4" rx="1" ry="1" width="4" x="155.80000000000007" y="19.7"><title>2024-07-08 34.15 mins</title></rect><rect fill="#afe1a9" height="4" rx="1" ry="1" width="4" x="155.80000000000007" y="25.1"><title>2024-07-09 7.7 mins</title></rect><rect fill="#a7dda1" height="4" rx="1" ry="1" width="4" x="155.80000000000007" y="30.5"><title>2024-07-10 37.83 mins</title></rect><rect fill="#afe1a9" height="4" rx="1" ry="1" width="4" x="155.80000000000007" y="35.9"><title>2024-07-11 6.08 mins</title></rect><rect fill="#a9dea2" height="4" rx="1" ry="1" width="4" x="155.80000000000007" y="41.300000000000004"><title>2024-07-12 33.15 mins</title></rect><rect fill="#a9dea3" height="4" rx="1" ry="1" width="4" x="155.80000000000007" y="46.699999999999996"><title>2024-07-13 31.78 mins</title></rect><rect fill="#66b762" height="4" rx="1" ry="1" width="4" x="155.80000000000007" y="52.1"><title>2024-07-14 68.55 mins</title></rect><rect fill="#a9dea2" height="4" rx="1" ry="1" width="4" x="161.20000000000007" y="19.7"><title>2024-07-15 32.57 mins</title></rect><rect fill="#519b4c" height="4" rx="1" ry="1" width="4" x="161.20000000000007" y="25.1"><title>2024-07-16 229.57 mins</title></rect><rect fill="#65b761" height="4" rx="1" ry="1" width="4" x="161.20000000000007" y="30.5"><title>2024-07-17 81.1 mins</title></rect><rect fill="#a2db9b" height="4" rx="1" ry="1" width="4" x="161.20000000000007" y="35.9"><title>2024-07-18 60.2 mins</title></rect><rect fill="#a7dea1" height="4" rx="1" ry="1" width="4" x="161.20000000000007" y="41.300000000000004"><title>2024-07-19 37.3 mins</title></rect><rect fill="#b1e2ab" height="4" rx="1" ry="1" width="4" x="161.20000000000007" y="46.699999999999996"><title>2024-07-20 1.15 mins</title></rect><rect fill="#a9dea3" height="4" rx="1" ry="1" width="4" x="161.20000000000007" y="52.1"><title>2024-07-21 30.2 mins</title></rect><rect fill="#64b65f" height="4" rx="1" ry="1" width="4" x="166.60000000000008" y="19.7"><title>2024-07-22 103.17 mins</title></rect><rect fill="#65b761" height="4" rx="1" ry="1" width="4" x="166.60000000000008" y="25.1"><title>2024-07-23 79.98 mins</title></rect><rect fill="#a1da9a" height="4" rx="1" ry="1" width="4" x="166.60000000000008" y="30.5"><title>2024-07-24 64.03 mins</title></rect><rect fill="#aadfa4" height="4" rx="1" ry="1" width="4" x="166.60000000000008" y="35.9"><title>2024-07-25 26.57 mins</title></rect><rect fill="#a9dea3" height="4" rx="1" ry="1" width="4" x="166.60000000000008" y="41.300000000000004"><title>2024-07-26 29.67 mins</title></rect><rect fill="#ace0a6" height="4" rx="1" ry="1" width="4" x="166.60000000000008" y="46.699999999999996"><title>2024-07-27 18.62 mins</title></rect><rect fill="#a9dea3" height="4" rx="1" ry="1" width="4" x="166.60000000000008" y="52.1"><title>2024-07-28 29.5 mins</title></rect><rect fill="#a4dc9d" height="4" rx="1" ry="1" width="4" x="172.00000000000009" y="19.7"><title>2024-07-29 52.38 mins</title></rect><rect fill="#ace0a6" height="4" rx="1" ry="1" width="4" x="172.00000000000009" y="25.1"><title>2024-07-30 18.73 mins</title></rect><rect fill="#abdfa4" height="4" rx="1" ry="1" width="4" x="172.00000000000009" y="30.5"><title>2024-07-31 25.23 mins</title></rect><rect fill="#aee0a8" height="4" rx="1" ry="1" width="4" x="172.00000000000009" y="35.9"><title>2024-08-01 12.68 mins</title></rect><rect fill="#abdfa5" height="4" rx="1" ry="1" width="4" x="172.00000000000009" y="41.300000000000004"><title>2024-08-02 22.67 mins</title></rect><rect fill="#a0da99" height="4" rx="1" ry="1" width="4" x="172.00000000000009" y="46.699999999999996"><title>2024-08-03 66.67 mins</title></rect><rect fill="#eeedf2" height="4" rx="1" ry="1" width="4" x="172.00000000000009" y="52.1"><title>2024-08-04</title></rect><text fill="#586e75" style="font-size:2.5px; font-family:Arial" x="177.4000000000001" y="18.3">Aug</text><rect fill="#64b660" height="4" rx="1" ry="1" width="4" x="177.4000000000001" y="19.7"><title>2024-08-05 98.23 mins</title></rect><rect fill="#66b761" height="4" rx="1" ry="1" width="4" x="177.4000000000001" y="25.1"><title>2024-08-06 77.48 mins</title></rect><rect fill="#a5dc9e" height="4" rx="1" ry="1" width="4" x="177.4000000000001" y="30.5"><title>2024-08-07 48.12 mins</title></rect><rect fill="#a7dda1" height="4" rx="1" ry="1" width="4" x="177.4000000000001" y="35.9"><title>2024-08-08 37.58 mins</title></rect><rect fill="#66b761" height="4" rx="1" ry="1" width="4" x="177.4000000000001" y="41.300000000000004"><title>2024-08-09 77.22 mins</title></rect><rect fill="#62b55e" height="4" rx="1" ry="1" width="4" x="177.4000000000001" y="46.699999999999996"><title>2024-08-10 119.82 mins</title></rect><rect fill="#66b762" height="4" rx="1" ry="1" width="4" x="177.4000000000001" y="52.1"><title>2024-08-11 68.7 mins</title></rect><rect fill="#65b660" height="4" rx="1" ry="1" width="4" x="182.8000000000001" y="19.7"><title>2024-08-12 89.15 mins</title></rect><rect fill="#66b762" height="4" rx="1" ry="1" width="4" x="182.8000000000001" y="25.1"><title>2024-08-13 73.03 mins</title></rect><rect fill="#ace0a6" height="4" rx="1" ry="1" width="4" x="182.8000000000001" y="30.5"><title>2024-08-14 20.48 mins</title></rect><rect fill="#a5dc9e" height="4" rx="1" ry="1" width="4" x="182.8000000000001" y="35.9"><title>2024-08-15 48.52 mins</title></rect><rect fill="#a3db9c" height="4" rx="1" ry="1" width="4" x="182.8000000000001" y="41.300000000000004"><title>2024-08-16 55.73 mins</title></rect><rect fill="#a5dc9e" height="4" rx="1" ry="1" width="4" x="182.8000000000001" y="46.699999999999996"><title>2024-08-17 47.72 mins</title></rect><rect fill="#66b761" height="4" rx="1" ry="1" width="4" x="182.8000000000001" y="52.1"><title>2024-08-18 76.98 mins</title></rect><rect fill="#a5dc9f" height="4" rx="1" ry="1" width="4" x="188.2000000000001" y="19.7"><title>2024-08-19 46.95 mins</title></rect><rect fill="#ade0a7" height="4" rx="1" ry="1" width="4" x="188.2000000000001" y="25.1"><title>2024-08-20 14.43 mins</title></rect><rect fill="#a9dea3" height="4" rx="1" ry="1" width="4" x="188.2000000000001" y="30.5"><title>2024-08-21 29.63 mins</title></rect><rect fill="#a9dea2" height="4" rx="1" ry="1" width="4" x="188.2000000000001" y="35.9"><title>2024-08-22 32.58 mins</title></rect><rect fill="#65b761" height="4" rx="1" ry="1" width="4" x="188.2000000000001" y="41.300000000000004"><title>2024-08-23 82.47 mins</title></rect><rect fill="#a2db9b" height="4" rx="1" ry="1" width="4" x="188.2000000000001" y="46.699999999999996"><title>2024-08-24 60.5 mins</title></rect><rect fill="#a7dda0" height="4" rx="1" ry="1" width="4" x="188.2000000000001" y="52.1"><title>2024-08-25 40.6 mins</title></rect><rect fill="#a1da9b" height="4" rx="1" ry="1" width="4" x="193.6000000000001" y="19.7"><title>2024-08-26 61.73 mins</title></rect><rect fill="#a6dd9f" height="4" rx="1" ry="1" width="4" x="193.6000000000001" y="25.1"><title>2024-08-27 45.12 mins</title></rect><rect fill="#a9dea3" height="4" rx="1" ry="1" width="4" x="193.6000000000001" y="30.5"><title>2024-08-28 29.7 mins</title></rect><rect fill="#62b45d" height="4" rx="1" ry="1" width="4" x="193.6000000000001" y="35.9"><title>2024-08-29 125.52 mins</title></rect><rect fill="#abdfa5" height="4" rx="1" ry="1" width="4" x="193.6000000000001" y="41.300000000000004"><title>2024-08-30 22.03 mins</title></rect><rect fill="#a4dc9d" height="4" rx="1" ry="1" width="4" x="193.6000000000001" y="46.699999999999996"><title>2024-08-31 52.28 mins</title></rect><rect fill="#ace0a6" height="4" rx="1" ry="1" width="4" x="193.6000000000001" y="52.1"><title>2024-09-01 17.83 mins</title></rect><text fill="#586e75" style="font-size:2.5px; font-family:Arial" x="199.0000000000001" y="18.3">Sep</text><rect fill="#a9dea2" height="4" rx="1" ry="1" width="4" x="199.0000000000001" y="19.7"><title>2024-09-02 32.8 mins</title></rect><rect fill="#aadfa3" height="4" rx="1" ry="1" width="4" x="199.0000000000001" y="25.1"><title>2024-09-03 29.15 mins</title></rect><rect fill="#66b762" height="4" rx="1" ry="1" width="4" x="199.0000000000001" y="30.5"><title>2024-09-04 69.35 mins</title></rect><rect fill="#65b660" height="4" rx="1" ry="1" width="4" x="199.0000000000001" y="35.9"><title>2024-09-05 88.83 mins</title></rect><rect fill="#63b55e" height="4" rx="1" ry="1" width="4" x="199.0000000000001" y="41.300000000000004"><title>2024-09-06 113.75 mins</title></rect><rect fill="#a9dea3" height="4" rx="1" ry="1" width="4" x="199.0000000000001" y="46.699999999999996"><title>2024-09-07 31.5 mins</title></rect><rect fill="#65b661" height="4" rx="1" ry="1" width="4" x="199.0000000000001" y="52.1"><title>2024-09-08 85.43 mins</title></rect><rect fill="#63b55f" height="4" rx="1" ry="1" width="4" x="204.40000000000012" y="19.7"><title>2024-09-09 110.57 mins</title></rect><rect fill="#64b660" height="4" rx="1" ry="1" width="4" x="204.40000000000012" y="25.1"><title>2024-09-10 93.52 mins</title></rect><rect fill="#64b660" height="4" rx="1" ry="1" width="4" x="204.40000000000012" y="30.5"><title>2024-09-11 93.67 mins</title></rect><rect fill="#ade0a7" height="4" rx="1" ry="1" width="4" x="204.40000000000012" y="35.9"><title>2024-09-12 15.95 mins</title></rect><rect fill="#a8dea2" height="4" rx="1" ry="1" width="4" x="204.40000000000012" y="41.300000000000004"><title>2024-09-13 34.38 mins</title></rect><rect fill="#a8dea2" height="4" rx="1" ry="1" width="4" x="204.40000000000012" y="46.699999999999996"><title>2024-09-14 35.3 mins</title></rect><rect fill="#aee1a8" height="4" rx="1" ry="1" width="4" x="204.40000000000012" y="52.1"><title>2024-09-15 12.03 mins</title></rect><rect fill="#abdfa5" height="4" rx="1" ry="1" width="4" x="209.80000000000013" y="19.7"><title>2024-09-16 22.55 mins</title></rect><rect fill="#ace0a6" height="4" rx="1" ry="1" width="4" x="209.80000000000013" y="25.1"><title>2024-09-17 20.65 mins</title></rect><rect fill="#a2db9b" height="4" rx="1" ry="1" width="4" x="209.80000000000013" y="30.5"><title>2024-09-18 58.98 mins</title></rect><rect fill="#519b4c" height="4" rx="1" ry="1" width="4" x="209.80000000000013" y="35.9"><title>2024-09-19 141.68 mins</title></rect><rect fill="#a4dc9e" height="4" rx="1" ry="1" width="4" x="209.80000000000013" y="41.300000000000004"><title>2024-09-20 50.67 mins</title></rect><rect fill="#afe1a9" height="4" rx="1" ry="1" width="4" x="209.80000000000013" y="46.699999999999996"><title>2024-09-21 7.12 mins</title></rect><rect fill="#b0e2aa" height="4" rx="1" ry="1" width="4" x="209.80000000000013" y="52.1"><title>2024-09-22 2.1 mins</title></rect><rect fill="#aee1a8" height="4" rx="1" ry="1" width="4" x="215.20000000000013" y="19.7"><title>2024-09-23 12.25 mins</title></rect><rect fill="#a9dea3" height="4" rx="1" ry="1" width="4" x="215.20000000000013" y="25.1"><title>2024-09-24 29.55 mins</title></rect><rect fill="#afe1a9" height="4" rx="1" ry="1" width="4" x="215.20000000000013" y="30.5"><title>2024-09-25 7.85 mins</title></rect><rect fill="#eeedf2" height="4" rx="1" ry="1" width="4" x="215.20000000000013" y="35.9"><title>2024-09-26</title></rect><rect fill="#519b4c" height="4" rx="1" ry="1" width="4" x="215.20000000000013" y="41.300000000000004"><title>2024-09-27 160.7 mins</title></rect><rect fill="#64b65f" height="4" rx="1" ry="1" width="4" x="215.20000000000013" y="46.699999999999996"><title>2024-09-28 102.93 mins</title></rect><rect fill="#65b660" height="4" rx="1" ry="1" width="4" x="215.20000000000013" y="52.1"><title>2024-09-29 87.97 mins</title></rect><rect fill="#66b761" height="4" rx="1" ry="1" width="4" x="220.60000000000014" y="19.7"><title>2024-09-30 76.02 mins</title></rect><rect fill="#aee1a8" height="4" rx="1" ry="1" width="4" x="220.60000000000014" y="25.1"><title>2024-10-01 11.35 mins</title></rect><rect fill="#64b660" height="4" rx="1" ry="1" width="4" x="220.60000000000014" y="30.5"><title>2024-10-02 93.53 mins</title></rect><rect fill="#aee1a8" height="4" rx="1" ry="1" width="4" x="220.60000000000014" y="35.9"><title>2024-10-03 10.52 mins</title></rect><rect fill="#aadfa3" height="4" rx="1" ry="1" width="4" x="220.60000000000014" y="41.300000000000004"><title>2024-10-04 29.02 mins</title></rect><rect fill="#eeedf2" height="4" rx="1" ry="1" width="4" x="220.60000000000014" y="46.699999999999996"><title>2024-10-05</title></rect><rect fill="#eeedf2" height="4" rx="1" ry="1" width="4" x="220.60000000000014" y="52.1"><title>2024-10-06</title></rect><text fill="#586e75" style="font-size:2.5px; font-family:Arial" x="226.00000000000014" y="18.3">Oct</text><rect fill="#eeedf2" height="4" rx="1" ry="1" width="4" x="226.00000000000014" y="19.7"><title>2024-10-07</title></rect><rect fill="#eeedf2" height="4" rx="1" ry="1" width="4" x="226.00000000000014" y="25.1"><title>2024-10-08</title></rect><rect fill="#eeedf2" height="4" rx="1" ry="1" width="4" x="226.00000000000014" y="30.5"><title>2024-10-09</title></rect><rect fill="#eeedf2" height="4" rx="1" ry="1" width="4" x="226.00000000000014" y="35.9"><title>2024-10-10</title></rect><rect fill="#eeedf2" height="4" rx="1" ry="1" width="4" x="226.00000000000014" y="41.300000000000004"><title>2024-10-11</title></rect><rect fill="#eeedf2" height="4" rx="1" ry="1" width="4" x="226.00000000000014" y="46.699999999999996"><title>2024-10-12</title></rect><rect fill="#eeedf2" height="4" rx="1" ry="1" width="4" x="226.00000000000014" y="52.1"><title>2024-10-13</title></rect><rect fill="#eeedf2" height="4" rx="1" ry="1" width="4" x="231.40000000000015" y="19.7"><title>2024-10-14</title></rect><rect fill="#eeedf2" height="4" rx="1" ry="1" width="4" x="231.40000000000015" y="25.1"><title>2024-10-15</title></rect><rect fill="#eeedf2" height="4" rx="1" ry="1" width="4" x="231.40000000000015" y="30.5"><title>2024-10-16</title></rect><rect fill="#eeedf2" height="4" rx="1" ry="1" width="4" x="231.40000000000015" y="35.9"><title>2024-10-17</title></rect><rect fill="#eeedf2" height="4" rx="1" ry="1" width="4" x="231.40000000000015" y="41.300000000000004"><title>2024-10-18</title></rect><rect fill="#eeedf2" height="4" rx="1" ry="1" width="4" x="231.40000000000015" y="46.699999999999996"><title>2024-10-19</title></rect><rect fill="#eeedf2" height="4" rx="1" ry="1" width="4" x="231.40000000000015" y="52.1"><title>2024-10-20</title></rect><rect fill="#eeedf2" height="4" rx="1" ry="1" width="4" x="236.80000000000015" y="19.7"><title>2024-10-21</title></rect><rect fill="#eeedf2" height="4" rx="1" ry="1" width="4" x="236.80000000000015" y="25.1"><title>2024-10-22</title></rect><rect fill="#eeedf2" height="4" rx="1" ry="1" width="4" x="236.80000000000015" y="30.5"><title>2024-10-23</title></rect><rect fill="#eeedf2" height="4" rx="1" ry="1" width="4" x="236.80000000000015" y="35.9"><title>2024-10-24</title></rect><rect fill="#eeedf2" height="4" rx="1" ry="1" width="4" x="236.80000000000015" y="41.300000000000004"><title>2024-10-25</title></rect><rect fill="#eeedf2" height="4" rx="1" ry="1" width="4" x="236.80000000000015" y="46.699999999999996"><title>2024-10-26</title></rect><rect fill="#eeedf2" height="4" rx="1" ry="1" width="4" x="236.80000000000015" y="52.1"><title>2024-10-27</title></rect><rect fill="#eeedf2" height="4" rx="1" ry="1" width="4" x="242.20000000000016" y="19.7"><title>2024-10-28</title></rect><rect fill="#eeedf2" height="4" rx="1" ry="1" width="4" x="242.20000000000016" y="25.1"><title>2024-10-29</title></rect><rect fill="#eeedf2" height="4" rx="1" ry="1" width="4" x="242.20000000000016" y="30.5"><title>2024-10-30</title></rect><rect fill="#eeedf2" height="4" rx="1" ry="1" width="4" x="242.20000000000016" y="35.9"><title>2024-10-31</title></rect><rect fill="#eeedf2" height="4" rx="1" ry="1" width="4" x="242.20000000000016" y="41.300000000000004"><title>2024-11-01</title></rect><rect fill="#eeedf2" height="4" rx="1" ry="1" width="4" x="242.20000000000016" y="46.699999999999996"><title>2024-11-02</title></rect><rect fill="#eeedf2" height="4" rx="1" ry="1" width="4" x="242.20000000000016" y="52.1"><title>2024-11-03</title></rect><text fill="#586e75" style="font-size:2.5px; font-family:Arial" x="247.60000000000016" y="18.3">Nov</text><rect fill="#eeedf2" height="4" rx="1" ry="1" width="4" x="247.60000000000016" y="19.7"><title>2024-11-04</title></rect><rect fill="#eeedf2" height="4" rx="1" ry="1" width="4" x="247.60000000000016" y="25.1"><title>2024-11-05</title></rect><rect fill="#eeedf2" height="4" rx="1" ry="1" width="4" x="247.60000000000016" y="30.5"><title>2024-11-06</title></rect><rect fill="#eeedf2" height="4" rx="1" ry="1" width="4" x="247.60000000000016" y="35.9"><title>2024-11-07</title></rect><rect fill="#eeedf2" height="4" rx="1" ry="1" width="4" x="247.60000000000016" y="41.300000000000004"><title>2024-11-08</title></rect><rect fill="#eeedf2" height="4" rx="1" ry="1" width="4" x="247.60000000000016" y="46.699999999999996"><title>2024-11-09</title></rect><rect fill="#eeedf2" height="4" rx="1" ry="1" width="4" x="247.60000000000016" y="52.1"><title>2024-11-10</title></rect><rect fill="#eeedf2" height="4" rx="1" ry="1" width="4" x="253.00000000000017" y="19.7"><title>2024-11-11</title></rect><rect fill="#eeedf2" height="4" rx="1" ry="1" width="4" x="253.00000000000017" y="25.1"><title>2024-11-12</title></rect><rect fill="#eeedf2" height="4" rx="1" ry="1" width="4" x="253.00000000000017" y="30.5"><title>2024-11-13</title></rect><rect fill="#eeedf2" height="4" rx="1" ry="1" width="4" x="253.00000000000017" y="35.9"><title>2024-11-14</title></rect><rect fill="#eeedf2" height="4" rx="1" ry="1" width="4" x="253.00000000000017" y="41.300000000000004"><title>2024-11-15</title></rect><rect fill="#eeedf2" height="4" rx="1" ry="1" width="4" x="253.00000000000017" y="46.699999999999996"><title>2024-11-16</title></rect><rect fill="#eeedf2" height="4" rx="1" ry="1" width="4" x="253.00000000000017" y="52.1"><title>2024-11-17</title></rect><rect fill="#eeedf2" height="4" rx="1" ry="1" width="4" x="258.40000000000015" y="19.7"><title>2024-11-18</title></rect><rect fill="#eeedf2" height="4" rx="1" ry="1" width="4" x="258.40000000000015" y="25.1"><title>2024-11-19</title></rect><rect fill="#eeedf2" height="4" rx="1" ry="1" width="4" x="258.40000000000015" y="30.5"><title>2024-11-20</title></rect><rect fill="#eeedf2" height="4" rx="1" ry="1" width="4" x="258.40000000000015" y="35.9"><title>2024-11-21</title></rect><rect fill="#eeedf2" height="4" rx="1" ry="1" width="4" x="258.40000000000015" y="41.300000000000004"><title>2024-11-22</title></rect><rect fill="#eeedf2" height="4" rx="1" ry="1" width="4" x="258.40000000000015" y="46.699999999999996"><title>2024-11-23</title></rect><rect fill="#eeedf2" height="4" rx="1" ry="1" width="4" x="258.40000000000015" y="52.1"><title>2024-11-24</title></rect><rect fill="#eeedf2" height="4" rx="1" ry="1" width="4" x="263.8000000000001" y="19.7"><title>2024-11-25</title></rect><rect fill="#eeedf2" height="4" rx="1" ry="1" width="4" x="263.8000000000001" y="25.1"><title>2024-11-26</title></rect><rect fill="#eeedf2" height="4" rx="1" ry="1" width="4" x="263.8000000000001" y="30.5"><title>2024-11-27</title></rect><rect fill="#eeedf2" height="4" rx="1" ry="1" width="4" x="263.8000000000001" y="35.9"><title>2024-11-28</title></rect><rect fill="#eeedf2" height="4" rx="1" ry="1" width="4" x="263.8000000000001" y="41.300000000000004"><title>2024-11-29</title></rect><rect fill="#eeedf2" height="4" rx="1" ry="1" width="4" x="263.8000000000001" y="46.699999999999996"><title>2024-11-30</title></rect><rect fill="#eeedf2" height="4" rx="1" ry="1" width="4" x="263.8000000000001" y="52.1"><title>2024-12-01</title></rect><text fill="#586e75" style="font-size:2.5px; font-family:Arial" x="269.2000000000001" y="18.3">Dec</text><rect fill="#eeedf2" height="4" rx="1" ry="1" width="4" x="269.2000000000001" y="19.7"><title>2024-12-02</title></rect><rect fill="#eeedf2" height="4" rx="1" ry="1" width="4" x="269.2000000000001" y="25.1"><title>2024-12-03</title></rect><rect fill="#eeedf2" height="4" rx="1" ry="1" width="4" x="269.2000000000001" y="30.5"><title>2024-12-04</title></rect><rect fill="#eeedf2" height="4" rx="1" ry="1" width="4" x="269.2000000000001" y="35.9"><title>2024-12-05</title></rect><rect fill="#eeedf2" height="4" rx="1" ry="1" width="4" x="269.2000000000001" y="41.300000000000004"><title>2024-12-06</title></rect><rect fill="#eeedf2" height="4" rx="1" ry="1" width="4" x="269.2000000000001" y="46.699999999999996"><title>2024-12-07</title></rect><rect fill="#eeedf2" height="4" rx="1" ry="1" width="4" x="269.2000000000001" y="52.1"><title>2024-12-08</title></rect><rect fill="#eeedf2" height="4" rx="1" ry="1" width="4" x="274.6000000000001" y="19.7"><title>2024-12-09</title></rect><rect fill="#eeedf2" height="4" rx="1" ry="1" width="4" x="274.6000000000001" y="25.1"><title>2024-12-10</title></rect><rect fill="#eeedf2" height="4" rx="1" ry="1" width="4" x="274.6000000000001" y="30.5"><title>2024-12-11</title></rect><rect fill="#eeedf2" height="4" rx="1" ry="1" width="4" x="274.6000000000001" y="35.9"><title>2024-12-12</title></rect><rect fill="#eeedf2" height="4" rx="1" ry="1" width="4" x="274.6000000000001" y="41.300000000000004"><title>2024-12-13</title></rect><rect fill="#eeedf2" height="4" rx="1" ry="1" width="4" x="274.6000000000001" y="46.699999999999996"><title>2024-12-14</title></rect><rect fill="#eeedf2" height="4" rx="1" ry="1" width="4" x="274.6000000000001" y="52.1"><title>2024-12-15</title></rect><rect fill="#eeedf2" height="4" rx="1" ry="1" width="4" x="280.00000000000006" y="19.7"><title>2024-12-16</title></rect><rect fill="#eeedf2" height="4" rx="1" ry="1" width="4" x="280.00000000000006" y="25.1"><title>2024-12-17</title></rect><rect fill="#eeedf2" height="4" rx="1" ry="1" width="4" x="280.00000000000006" y="30.5"><title>2024-12-18</title></rect><rect fill="#eeedf2" height="4" rx="1" ry="1" width="4" x="280.00000000000006" y="35.9"><title>2024-12-19</title></rect><rect fill="#eeedf2" height="4" rx="1" ry="1" width="4" x="280.00000000000006" y="41.300000000000004"><title>2024-12-20</title></rect><rect fill="#eeedf2" height="4" rx="1" ry="1" width="4" x="280.00000000000006" y="46.699999999999996"><title>2024-12-21</title></rect><rect fill="#eeedf2" height="4" rx="1" ry="1" width="4" x="280.00000000000006" y="52.1"><title>2024-12-22</title></rect><rect fill="#eeedf2" height="4" rx="1" ry="1" width="4" x="285.40000000000003" y="19.7"><title>2024-12-23</title></rect><rect fill="#eeedf2" height="4" rx="1" ry="1" width="4" x="285.40000000000003" y="25.1"><title>2024-12-24</title></rect><rect fill="#eeedf2" height="4" rx="1" ry="1" width="4" x="285.40000000000003" y="30.5"><title>2024-12-25</title></rect><rect fill="#eeedf2" height="4" rx="1" ry="1" width="4" x="285.40000000000003" y="35.9"><title>2024-12-26</title></rect><rect fill="#eeedf2" height="4" rx="1" ry="1" width="4" x="285.40000000000003" y="41.300000000000004"><title>2024-12-27</title></rect><rect fill="#eeedf2" height="4" rx="1" ry="1" width="4" x="285.40000000000003" y="46.699999999999996"><title>2024-12-28</title></rect><rect fill="#eeedf2" height="4" rx="1" ry="1" width="4" x="285.40000000000003" y="52.1"><title>2024-12-29</title></rect><rect fill="#eeedf2" height="4" rx="1" ry="1" width="4" x="290.8" y="19.7"><title>2024-12-30</title></rect><rect fill="#eeedf2" height="4" rx="1" ry="1" width="4" x="290.8" y="25.1"><title>2024-12-31</title></rect></svg>